<svg width="149" height="98" viewBox="0 0 149 98" fill="none" xmlns="http://www.w3.org/2000/svg">
<g filter="url(#filter0_d_1_4)">
<path d="M4.0625 65V23.5C4.8125 17.5833 7.35417 12.375 11.6875 7.875C16.2708 3.20833 21.8958 0.875 28.5625 0.875V18.5C24.9792 18.5833 22.7708 20.2917 21.9375 23.625C21.7708 24.375 21.6875 25 21.6875 25.5V65C21.7708 68.4167 23.6875 70.6667 27.4375 71.75C27.9375 71.9167 28.3125 72 28.5625 72V89.625C23.7292 89.625 18.8958 87.9167 14.0625 84.5C7.47917 79.6667 4.14583 73.1667 4.0625 65ZM35.3125 89.625V72C36.2292 72 37.3958 71.25 38.8125 69.75C40.0625 68.3333 40.6875 66.8333 40.6875 65.25V61.125H35.3125V44.875H58.4375V67C58.4375 72.1667 55.7708 77.25 50.4375 82.25C45.3542 87.0833 40.3125 89.5417 35.3125 89.625ZM35.3125 18.5V0.875C41.4792 0.875 46.9792 3.54167 51.8125 8.875C56.2292 13.625 58.4375 18.8333 58.4375 24.5L41.1875 30.875V26C41.1875 22.0833 39.6875 19.6667 36.6875 18.75C36.1875 18.5833 35.7292 18.5 35.3125 18.5Z" fill="#C8E6C9"/>
<path d="M67.9375 89V33.5H69.0625L85.5625 73.125V89H67.9375ZM67.9375 13V1.5H81.6875L105.562 59.375L118.812 29.5H120.062V70.125L111.688 89H99.5625L67.9375 13ZM126.812 89V1.5H144.438V89H126.812Z" fill="#E1BEE7"/>
</g>
<defs>
<filter id="filter0_d_1_4" x="0.0625" y="0.875" width="148.375" height="96.75" filterUnits="userSpaceOnUse" color-interpolation-filters="sRGB">
<feFlood flood-opacity="0" result="BackgroundImageFix"/>
<feColorMatrix in="SourceAlpha" type="matrix" values="0 0 0 0 0 0 0 0 0 0 0 0 0 0 0 0 0 0 127 0" result="hardAlpha"/>
<feOffset dy="4"/>
<feGaussianBlur stdDeviation="2"/>
<feComposite in2="hardAlpha" operator="out"/>
<feColorMatrix type="matrix" values="0 0 0 0 0 0 0 0 0 0 0 0 0 0 0 0 0 0 0.25 0"/>
<feBlend mode="normal" in2="BackgroundImageFix" result="effect1_dropShadow_1_4"/>
<feBlend mode="normal" in="SourceGraphic" in2="effect1_dropShadow_1_4" result="shape"/>
</filter>
</defs>
</svg>
