<svg width="473" height="46" viewBox="0 0 473 46" fill="none" xmlns="http://www.w3.org/2000/svg">
<path d="M0.5 33V12.25C0.541667 9.91667 1.5 7.625 3.375 5.375C5.875 2.41667 9.0625 0.9375 12.9375 0.9375V4.125C10.0208 4.16667 7.625 5.375 5.75 7.75C4.45833 9.41667 3.8125 11.25 3.8125 13.25V33C3.8125 36.5 5.5625 39.1667 9.0625 41C10.5625 41.75 11.8542 42.125 12.9375 42.125V45.3125C10.3542 45.3125 7.85417 44.4375 5.4375 42.6875C2.1875 40.2708 0.541667 37.0417 0.5 33ZM15.8125 45.3125V42.125C17.4792 42.125 19.2708 41.25 21.1875 39.5C23.2292 37.5417 24.2708 35.4167 24.3125 33.125V26.0625H15.8125V22.9375H27.6875V34C27.6875 36.5417 26.3958 39.0625 23.8125 41.5625C21.1875 44.0208 18.5208 45.2708 15.8125 45.3125ZM15.8125 4.125V0.9375C19.0625 0.895833 21.9375 2.25 24.4375 5C26.6042 7.375 27.6875 9.95833 27.6875 12.75L24.4375 13.9375C24.4375 13.3125 24.4167 12.9167 24.375 12.75C24.0833 9.25 22.3542 6.6875 19.1875 5.0625C17.9375 4.4375 16.8125 4.125 15.8125 4.125ZM32.625 32.8125V12.25C32.625 10.0417 33.5625 7.79167 35.4375 5.5C37.9375 2.5 41.1042 0.979167 44.9375 0.9375V4.1875C41.8958 4.1875 39.4167 5.66667 37.5 8.625C36.4583 10.25 35.9375 11.7917 35.9375 13.25V32.8125C35.9375 36.0208 37.4375 38.5833 40.4375 40.5C42.0625 41.5417 43.5417 42.0625 44.875 42.0625V45.3125C42.5 45.3125 40.125 44.4583 37.75 42.75C34.375 40.25 32.6667 36.9375 32.625 32.8125ZM48.3125 45.3125V42.0625C50.2708 42.0625 52.1875 41.2292 54.0625 39.5625C56.1875 37.6875 57.2708 35.4375 57.3125 32.8125V13.25C57.3125 11.125 56.4583 9.10417 54.75 7.1875C52.9583 5.22917 50.8125 4.22917 48.3125 4.1875V0.9375C52.5208 0.9375 55.8958 2.75 58.4375 6.375C59.8958 8.45833 60.625 10.4167 60.625 12.25V32.8125C60.625 37.4375 58.5625 40.9792 54.4375 43.4375C52.2708 44.6875 50.2292 45.3125 48.3125 45.3125ZM64.9375 45L73.4375 7.6875H74.5L75.5 12.4375L68.25 45H64.9375ZM72.875 36.9375L73.5625 33.75H83.125L76 1.3125H79.3125L88.875 45H85.5625L83.875 36.9375H72.875ZM93.1875 45V1.25H96.5V41.8125H116.688V45H93.1875Z" fill="#4CAF50"/>
<path d="M120.562 45V11.5625H121.125L123.875 18.3125V45H120.562ZM120.562 3.1875V1.25H123.438L139.375 39.875L152 11.375H152.625V18.25L140.812 45H137.938L120.562 3.1875ZM155.5 45V1.25H158.812V45H155.5ZM163.938 45V1.25H186.688V4.4375H167.25V21.5625H180.812V24.8125H167.25V41.8125H186.688V45H163.938ZM191.062 45L199.562 7.6875H200.625L201.625 12.4375L194.375 45H191.062ZM199 36.9375L199.688 33.75H209.25L202.125 1.3125H205.438L215 45H211.688L210 36.9375H199ZM218.625 35.125L221.625 34.0625C222.375 37.8958 224.604 40.4167 228.312 41.625C229.646 41.9167 230.312 42.0625 230.312 42.0625V45.1875C226.562 45.1875 223.438 43.6042 220.938 40.4375C219.438 38.5208 218.667 36.75 218.625 35.125ZM219.125 12.9375C219.125 8.47917 221.083 5.125 225 2.875C226.875 1.79167 228.646 1.25 230.312 1.25V4.375C228.812 4.41667 227.229 5.10417 225.562 6.4375C223.479 8.22917 222.417 10.4792 222.375 13.1875C222.375 16.3125 224.625 18.5417 229.125 19.875C229.583 20.0417 231.938 20.5625 236.188 21.4375C237.021 21.6042 237.688 21.7708 238.188 21.9375C242.021 23.1042 244.458 25.0833 245.5 27.875C245.958 29.1667 246.188 30.625 246.188 32.25C246.188 35.7917 244.792 38.875 242 41.5C239.417 43.9583 236.479 45.1875 233.188 45.1875V42.0625C235.021 42.0625 236.958 41.2292 239 39.5625C241.542 37.4375 242.833 34.9167 242.875 32C242.875 28.4583 240.479 26.0208 235.688 24.6875C235.312 24.6042 233.104 24.1667 229.062 23.375C228.062 23.1667 227.312 22.9792 226.812 22.8125C223.438 21.4792 221.229 19.8333 220.188 17.875C219.479 16.5 219.125 14.8542 219.125 12.9375ZM233.188 4.375V1.25C236.938 1.25 240.042 2.95833 242.5 6.375C243.583 7.875 244.229 9.22917 244.438 10.4375L241.312 11.4375C240.979 10.1875 240.479 9.08333 239.812 8.125C239.146 7.16667 238.438 6.45833 237.688 6C236.938 5.54167 236.208 5.1875 235.5 4.9375C234.833 4.64583 234.271 4.47917 233.812 4.4375L233.188 4.375ZM250.375 32.9375V1.25H253.688V32.9375C253.688 36.2708 255.396 38.875 258.812 40.75C260.396 41.625 261.75 42.0625 262.875 42.0625V45.3125C260.5 45.3125 258.083 44.4792 255.625 42.8125C252.167 40.3542 250.417 37.0625 250.375 32.9375ZM265.812 45.3125V42.0625C267.562 42.0625 269.375 41.375 271.25 40C273.708 38.1667 274.958 35.8125 275 32.9375V1.25H278.312V32.9375C278.312 37.6042 276.208 41.125 272 43.5C269.833 44.7083 267.771 45.3125 265.812 45.3125ZM283.375 45V1.25H286.688V45H283.375ZM289.562 25.375V22.25H298.375C302.292 22.25 304.667 20.6042 305.5 17.3125C305.792 16.1875 305.938 14.875 305.938 13.375C305.938 8.5 304.208 5.5625 300.75 4.5625C299.667 4.27083 298.417 4.125 297 4.125H289.562V1.25H298.25C305.542 1.66667 309.208 5.70833 309.25 13.375C309.208 18.625 307.771 22.1042 304.938 23.8125C307.812 25.1458 309.396 27.6875 309.688 31.4375L310.75 45H307.5L306.562 33.875C306.229 30.1667 305.354 27.75 303.938 26.625C302.771 25.75 301.125 25.3333 299 25.375H289.562ZM315 45V1.25H337.75V4.4375H318.312V21.5625H331.875V24.8125H318.312V41.8125H337.75V45H315ZM342.875 45V11.5625H343.438L346.188 18.3125V45H342.875ZM342.875 3.1875V1.25H345.75L361.688 39.875L374.312 11.375H374.938V18.25L363.125 45H360.25L342.875 3.1875ZM377.812 45V1.25H381.125V45H377.812ZM386.25 45V1.25H409V4.4375H389.562V21.5625H403.125V24.8125H389.562V41.8125H409V45H386.25ZM414.125 45V8.625H414.625L417.438 13.1875V45H414.125ZM414.125 3.3125V1.25H417.188L441.938 40.75V45H440.25L414.125 3.3125ZM438.625 30.6875V1.25H441.938V35.3125H441.438L438.625 30.6875ZM445.75 4.4375V1.25H472.812V4.4375H460.938V45H457.625V4.4375H445.75Z" fill="#9C27B0"/>
</svg>
